<?xml version="1.0" encoding="UTF-8" standalone="no"?>
<!-- Created with Inkscape (http://www.inkscape.org/) -->

<svg
   width="210mm"
   height="297mm"
   viewBox="0 0 210 297"
   version="1.1"
   id="svg1"
   xml:space="preserve"
   inkscape:version="1.3.1 (9b9bdc1480, 2023-11-25, custom)"
   sodipodi:docname="layered-bruno-logo.svg"
   xmlns:inkscape="http://www.inkscape.org/namespaces/inkscape"
   xmlns:sodipodi="http://sodipodi.sourceforge.net/DTD/sodipodi-0.dtd"
   xmlns="http://www.w3.org/2000/svg"
   xmlns:svg="http://www.w3.org/2000/svg"><sodipodi:namedview
     id="namedview1"
     pagecolor="#ffffff"
     bordercolor="#000000"
     borderopacity="0.25"
     inkscape:showpageshadow="2"
     inkscape:pageopacity="0.0"
     inkscape:pagecheckerboard="0"
     inkscape:deskcolor="#d1d1d1"
     inkscape:document-units="mm"
     inkscape:zoom="3.2403114"
     inkscape:cx="57.864809"
     inkscape:cy="13.733248"
     inkscape:window-width="1646"
     inkscape:window-height="894"
     inkscape:window-x="66"
     inkscape:window-y="32"
     inkscape:window-maximized="1"
     inkscape:current-layer="svg1" /><defs
     id="defs1" /><g
     inkscape:label="Layer 1"
     inkscape:groupmode="layer"
     id="layer1"><path
       id="path16"
       style="fill:#f2a83f;stroke-width:0.248829"
       d="M 17.459916 -3.4788574 A 2.5 2.5 0 0 0 14.95981 -0.97926839 A 2.5 2.5 0 0 0 15.238346 0.15606283 C 14.18266 0.31807653 13.148992 0.59774661 12.141378 1.0009725 C 11.702435 1.176636 10.81636 1.6116909 10.437606 1.8376139 C 10.183041 1.9896875 10.12968 2.0122329 9.9973226 2.0262329 C 9.7227966 2.0554577 9.2819929 2.1550774 8.9715454 2.2577433 C 6.5411246 3.0612842 4.1840686 5.4067639 2.2427572 8.9544922 C 1.6952566 9.9550406 1.2391002 10.916121 0.72915446 12.143445 C 0.099976318 13.657742 -0.0014933193 14.055225 0 14.993917 C 0.0011666554 15.6959 0.083141658 16.244871 0.29920654 16.998446 C 0.83768293 18.876378 2.0525351 21.013141 3.8891683 23.313306 C 4.2633152 23.781822 4.5753944 24.101953 4.7681844 24.215059 C 5.5256833 24.659503 6.5044734 24.485336 7.0672689 23.805782 C 7.1564598 23.698099 7.2561303 23.52726 7.387146 23.259045 L 7.577832 22.869405 L 7.7762695 23.166545 C 8.6419292 24.464951 9.647159 25.518144 10.67015 26.198401 C 10.995565 26.414798 11.531129 26.699593 11.828219 26.813867 C 11.936541 26.855517 12.166183 26.946619 12.338265 27.016439 C 12.865692 27.230405 13.325462 27.373467 13.72061 27.446387 L 13.876672 27.474809 L 13.962972 27.777633 C 14.292373 28.928521 14.832773 29.682868 15.572176 30.024524 C 15.905339 30.178465 16.635364 30.352794 17.204635 30.414164 C 18.210375 30.522605 19.18088 30.386869 19.768302 30.055013 C 20.295895 29.756978 20.763821 28.991671 21.089669 27.894938 C 21.160777 27.655484 21.186624 27.596697 21.224544 27.588497 C 21.766404 27.471948 22.301058 27.31067 22.694222 27.144596 C 22.829322 27.087547 23.056368 26.995378 23.198584 26.939958 C 24.413803 26.466469 25.533917 25.536553 26.597343 24.118941 C 26.801042 23.847409 27.255345 23.174259 27.39161 22.942269 L 27.463957 22.819796 L 27.616919 23.130371 C 27.8514 23.606986 28.088526 23.861724 28.478365 24.054862 C 28.741237 24.184941 28.977376 24.240381 29.271082 24.240381 C 29.673858 24.240381 30.014202 24.133108 30.328381 23.907068 C 30.512573 23.774506 30.600061 23.680871 30.956767 23.235791 C 32.973655 20.719488 34.342525 18.179639 34.768937 16.161287 C 34.902808 15.527909 34.920328 15.356589 34.919832 14.692643 C 34.918992 13.742442 34.853888 13.46522 34.260958 11.877311 C 32.409177 6.9180973 29.866625 3.7101706 27.042277 2.7698568 C 26.551074 2.6062914 25.955115 2.5032064 25.501286 2.5032064 L 25.321452 2.5032064 L 25.006226 2.3058024 C 23.326942 1.2538356 21.483249 0.5360775 19.652547 0.20877279 A 2.5 2.5 0 0 0 19.960022 -0.97926839 A 2.5 2.5 0 0 0 17.459916 -3.4788574 z M 17.459916 -1.9792074 A 1 1 0 0 1 18.459855 -0.97926839 A 1 1 0 0 1 17.459916 0.021187337 A 1 1 0 0 1 16.459977 -0.97926839 A 1 1 0 0 1 17.459916 -1.9792074 z " /><path
       style="fill:#010000;stroke-width:0.248829"
       d="m 17.497657,30.507728 c -0.714544,-0.06288 -1.462378,-0.230707 -1.861621,-0.417781 -1.107381,-0.51893 -1.744768,-1.930279 -1.930448,-4.274511 -0.01517,-0.191158 -0.02858,-0.67818 -0.02975,-1.082217 l -0.002,-0.734616 -0.19419,-0.108091 c -0.259407,-0.144433 -0.688347,-0.434231 -0.925138,-0.624962 -0.770555,-0.620733 -1.289415,-1.332302 -1.555058,-2.13263 -0.117424,-0.353731 -0.15709,-0.548738 -0.19139,-0.940824 -0.049,-0.563146 0.01867,-1.031881 0.172957,-1.19736 0.218399,-0.233973 0.619631,-0.24844 0.844247,-0.03033 0.170624,0.165608 0.178033,0.199616 0.180133,0.826036 0.0018,0.529022 0.0049,0.567463 0.06463,0.787898 0.210173,0.776131 0.788498,1.494123 1.661725,2.06298 0.542088,0.353148 0.79117,0.461705 1.124059,0.489822 0.195182,0.01633 0.482239,-0.035 0.676866,-0.120808 0.165083,-0.07303 0.236307,-0.124599 0.997278,-0.722378 L 17.16142,21.79189 v -0.828171 -0.828176 l 0.05973,-0.119875 c 0.103074,-0.206907 0.296332,-0.328881 0.51963,-0.328006 0.233099,9.92e-4 0.413231,0.101674 0.526689,0.294698 l 0.06422,0.109258 0.01167,0.856281 0.01167,0.856282 0.614095,0.482822 c 0.337748,0.265531 0.689146,0.53363 0.780862,0.595725 0.319607,0.216357 0.610093,0.28239 0.991964,0.225457 0.299132,-0.04433 0.409556,-0.0882 0.773775,-0.30549 1.054194,-0.628987 1.678578,-1.361322 1.919931,-2.251892 0.05845,-0.215773 0.06172,-0.25579 0.06277,-0.783569 l 0.0012,-0.556146 0.06527,-0.111066 c 0.25054,-0.426181 0.876651,-0.37899 1.068678,0.08062 0.01925,0.0455 0.04608,0.223357 0.06067,0.395031 0.08091,0.971319 -0.216532,1.958587 -0.832604,2.763868 -0.50493,0.659956 -1.355081,1.33663 -2.164346,1.722643 -0.192148,0.09164 -0.224756,0.115091 -0.214898,0.154407 0.0064,0.02567 0.02392,0.279007 0.0385,0.563322 0.09275,1.773199 -0.321998,3.633589 -1.057659,4.744284 -0.359506,0.54273 -0.864804,0.81952 -1.729882,0.947444 -0.300881,0.04433 -0.931711,0.063 -1.235859,0.03617 z"
       id="path13" /><path
       style="fill:#666666;stroke-width:0.248829"
       d="m 19.128233,19.262957 c -0.02567,-0.0052 -0.563613,-0.02975 -1.195791,-0.05425 -1.137872,-0.04433 -1.15091,-0.04433 -1.293994,-1.2e-5 -0.159424,0.04958 -0.433706,0.05903 -0.600153,0.02042 -0.104766,-0.02392 -1.441128,-0.566646 -1.629328,-0.661396 -0.202298,-0.101908 -0.340431,-0.353906 -0.315406,-0.575688 0.01283,-0.114041 0.664237,-1.865926 0.765445,-2.058664 0.140116,-0.266815 0.495364,-0.530538 0.800148,-0.593882 0.08382,-0.0175 0.748266,-0.02567 2.093862,-0.02567 2.168178,0 2.099701,-0.0041 2.392229,0.143558 0.166599,0.08412 0.394856,0.307006 0.481772,0.470513 0.124716,0.234557 0.785162,1.822562 0.798514,1.919983 0.021,0.154466 -0.042,0.33769 -0.159541,0.463281 -0.07992,0.08528 -0.233857,0.176165 -0.815203,0.481014 -0.394214,0.206732 -0.774825,0.393922 -0.84584,0.41603 -0.132824,0.04142 -0.394622,0.07128 -0.476697,0.05483 z"
       id="path23" /><path
       style="fill:#010000;stroke-width:0.248829"
       d="m 23.522782,12.22645 c -0.220674,-0.06008 -0.377181,-0.1239 -0.637276,-0.25999 -0.357756,-0.187133 -0.327656,-0.134108 -0.32824,-0.577964 -7.46e-4,-0.719986 0.136908,-1.095236 0.466547,-1.270941 0.193724,-0.103249 0.344982,-0.1406989 0.57003,-0.1409906 0.55533,-7.466e-4 1.015945,0.3632976 1.156586,0.9141536 0.06819,0.267107 0.028,0.57073 -0.109608,0.833018 -0.09252,0.176049 -0.316631,0.404422 -0.468239,0.477222 -0.157499,0.0756 -0.426881,0.08616 -0.649812,0.02567 z"
       id="path21" /><path
       style="fill:#010000;stroke-width:0.248829"
       d="m 12.22018,12.237025 c -0.302631,-0.116782 -0.562096,-0.429389 -0.654239,-0.788265 -0.162399,-0.63251 0.255032,-1.309423 0.894128,-1.4498307 0.18334,-0.04025 0.509246,-0.018667 0.672894,0.044333 0.456047,0.175933 0.619543,0.531647 0.621363,1.351517 7.46e-4,0.338156 -0.0026,0.367264 -0.04667,0.408506 -0.08184,0.07624 -0.533688,0.298839 -0.761758,0.375197 -0.261565,0.08762 -0.58298,0.113575 -0.725534,0.05857 z"
       id="path20" /><path
       style="fill:#010000;stroke-width:0.248829"
       d="m 16.026138,19.212237 c -0.07012,-0.01808 -0.471564,-0.174766 -0.892179,-0.348365 -0.831554,-0.343173 -0.896246,-0.381789 -0.991713,-0.591444 -0.09713,-0.213382 -0.08114,-0.281689 0.304031,-1.299821 0.190924,-0.504581 0.375664,-0.973869 0.410548,-1.042813 0.08365,-0.165199 0.315639,-0.390131 0.494838,-0.479672 0.296623,-0.148224 0.268623,-0.146649 2.458787,-0.139124 l 1.981338,0.007 0.147991,0.05367 c 0.304731,0.110074 0.540571,0.311556 0.683469,0.58382 0.04375,0.08283 0.236541,0.522488 0.429039,0.976995 0.32859,0.775759 0.350057,0.835445 0.350057,0.974534 0,0.188649 -0.08143,0.363765 -0.213732,0.459606 -0.167941,0.121624 -1.508415,0.806727 -1.650812,0.843675 -0.636302,0.165141 -1.29449,-0.221315 -1.460138,-0.857302 -0.0637,-0.24459 -0.03033,-0.431781 0.106574,-0.597849 0.290557,-0.352506 0.890558,-0.236715 1.020501,0.196991 0.01458,0.049 0.035,0.08896 0.0455,0.08896 0.04258,0 0.784619,-0.404306 0.784013,-0.427173 -2.45e-4,-0.01342 -0.102841,-0.26454 -0.22779,-0.557663 l -0.227149,-0.532988 -1.842108,-0.0058 -1.842103,-0.0058 -0.221607,0.591671 c -0.194074,0.518056 -0.216882,0.594151 -0.183691,0.611633 0.08067,0.04258 0.79407,0.330982 0.799115,0.323107 0.0029,-0.0046 0.03092,-0.06422 0.06178,-0.132591 0.06912,-0.152366 0.20259,-0.27084 0.356298,-0.316515 0.146182,-0.04317 0.207957,-0.04317 0.360439,0.0022 0.08855,0.02625 0.154116,0.06773 0.234557,0.148166 0.214199,0.214198 0.23339,0.493147 0.05833,0.847601 -0.09007,0.182232 -0.280523,0.389723 -0.447647,0.487664 -0.250307,0.146707 -0.625866,0.205273 -0.886585,0.138249 z"
       id="path19" /><path
       style="fill:#010000;stroke-width:0.248829"
       d="m 22.69803,27.069787 c -0.270665,-0.09678 -0.445489,-0.425131 -0.371815,-0.698409 0.05851,-0.21694 0.204049,-0.357581 0.466547,-0.450856 1.094671,-0.389022 2.243352,-1.420752 3.264728,-2.932246 0.351806,-0.52068 0.83685,-1.347784 0.837089,-1.427525 5.3e-5,-0.01808 -0.0931,-0.230532 -0.206965,-0.47273 -0.265123,-0.563672 -0.29009,-0.654648 -0.289448,-1.054392 4.96e-4,-0.299365 0.0055,-0.332789 0.118591,-0.776318 0.583329,-2.288589 0.79019,-4.6607 0.562213,-6.446989 -0.08377,-0.65624 -0.246282,-1.307079 -0.460422,-1.843725 -0.168758,-0.422914 -0.161058,-0.610676 0.03383,-0.826356 0.232048,-0.2568402 0.671441,-0.2491402 0.889648,0.01575 0.124482,0.151024 0.350347,0.754478 0.497988,1.330586 0.536313,2.092486 0.405123,4.962275 -0.369889,8.094499 -0.0819,0.330981 -0.104358,0.459372 -0.09327,0.533222 0.01633,0.110657 1.227314,2.682249 1.320075,2.803861 0.09129,0.1197 0.294582,0.209591 0.469406,0.207607 0.28974,-0.0033 0.386514,-0.09666 1.163457,-1.122227 2.467484,-3.257079 3.599459,-6.108663 3.201033,-8.063786 -0.06953,-0.341306 -0.423672,-1.34524 -0.824828,-2.3383 C 31.105753,7.1447671 28.739523,4.3926935 26.245648,3.855056 26.044633,3.8118896 25.923709,3.801973 25.550442,3.7990563 25.277094,3.7970672 25.07322,3.7856398 25.03437,3.7693065 24.998787,3.7547233 24.894779,3.6925403 24.802613,3.6306491 24.710447,3.5687578 24.489074,3.4296337 24.310633,3.321601 21.464999,1.5982001 18.464246,0.95544077 15.452649,1.424222 13.797959,1.6818204 12.121026,2.299759 10.846806,3.1215306 10.648591,3.2493381 10.580225,3.2709213 10.313818,3.2897629 9.3027675,3.3611041 8.0212564,4.0028484 6.8655519,5.0164946 4.9540622,6.6930249 3.2057006,9.4444161 1.7617321,13.048349 c -0.4497472,1.122502 -0.4860886,1.275503 -0.4842803,2.037554 9.975e-4,0.417955 0.0105,0.564079 0.053083,0.811073 0.2940565,1.713397 1.2821412,3.707894 2.944695,5.944013 0.2934731,0.394739 0.8362497,1.077141 1.0100412,1.269903 0.1909821,0.211865 0.3958475,0.276206 0.6468367,0.203232 0.2499568,-0.07268 0.2521151,-0.07618 0.9587024,-1.568294 0.4688221,-0.99001 0.6354735,-1.364245 0.644941,-1.448343 0.00992,-0.0889 -0.012833,-0.216066 -0.1059327,-0.588458 C 7.2893526,19.146875 7.0843706,18.136647 7.0019461,17.600234 6.8356971,16.518461 6.7782975,15.854369 6.7633642,14.840157 6.7464477,13.708084 6.8012807,12.990372 6.966888,12.16604 7.1286453,11.360672 7.4059602,10.549814 7.5920249,10.337873 7.942956,9.9381755 8.6208843,10.196824 8.6177518,10.729287 c -6.708e-4,0.113516 -0.0245,0.199207 -0.1313075,0.466664 -0.7595594,1.907634 -0.7237197,4.828284 0.1009744,8.230607 0.1208075,0.498338 0.1391824,0.603717 0.1391824,0.797587 0,0.375139 -0.044916,0.532813 -0.3091064,1.088014 l -0.1509074,0.31704 0.1504408,0.262324 c 0.7000831,1.220844 1.6937849,2.409163 2.6008509,3.11022 0.440414,0.340373 1.009464,0.667341 1.41055,0.810443 0.316748,0.112991 0.398472,0.174766 0.501838,0.379223 0.151024,0.298606 -0.03092,0.70671 -0.358222,0.803933 -0.200374,0.0595 -0.285657,0.04492 -0.683523,-0.115266 C 11.008062,26.52512 10.189347,25.94875 9.3513706,25.093909 8.7832658,24.514371 8.3214728,23.94314 7.8603624,23.249532 L 7.649022,22.931617 7.4608399,23.319589 C 7.2642578,23.72477 7.1391335,23.906116 6.9262765,24.094426 6.4382046,24.526207 5.6980875,24.651564 5.0891963,24.405574 4.7296903,24.260384 4.556733,24.111401 4.109675,23.562115 1.9115779,20.861211 0.53279064,18.276413 0.1754137,16.186611 0.1009225,15.751155 0.07980597,15.503088 0.07974763,15.062692 0.07962514,14.504329 0.13516395,14.085562 0.27043811,13.629363 0.39171235,13.219866 0.97085374,11.80745 1.4025585,10.868283 3.4481091,6.418265 6.0600494,3.4526052 8.850757,2.4114433 9.1550801,2.2979274 9.6316371,2.1775281 9.9691575,2.1289951 10.228273,2.091662 10.254931,2.0829121 10.44113,1.9700378 11.865866,1.107614 13.670769,0.47590877 15.435371,0.22208452 c 0.69061,-0.0993411 1.104669,-0.12693254 1.911816,-0.12734087 1.134775,-4.9583e-4 1.920817,0.0844078 2.996781,0.32409797 1.615642,0.35991442 3.320674,1.07679158 4.811041,2.02273068 l 0.250773,0.1591907 0.281632,0.00276 c 1.067079,0.0105 2.286133,0.4804887 3.391169,1.3075685 1.841006,1.3779298 3.442538,3.684462 4.790473,6.8992625 0.405006,0.965883 0.864949,2.229136 0.985984,2.707933 0.204924,0.810577 0.192324,1.778461 -0.03617,2.793776 -0.414339,1.839571 -1.530459,4.004126 -3.239206,6.282034 -0.388323,0.517706 -0.860348,1.101992 -0.997518,1.234828 -0.176223,0.170682 -0.415914,0.313423 -0.674696,0.401914 -0.204691,0.07 -0.242082,0.07531 -0.532988,0.07624 -0.369015,0.0012 -0.505514,-0.02975 -0.833864,-0.188065 -0.189933,-0.09164 -0.249957,-0.136266 -0.442048,-0.328823 -0.210115,-0.210582 -0.23164,-0.241499 -0.392231,-0.564372 l -0.169924,-0.341598 -0.114507,0.190982 c -0.320423,0.534447 -0.817484,1.225757 -1.237038,1.720426 -0.925505,1.091224 -1.922702,1.846764 -2.932929,2.222183 -0.243599,0.09053 -0.403373,0.105466 -0.553464,0.05192 z"
       id="path18" /><path
       style="fill:#ff0000;stroke-width:0.248829"
       d="m 18.564643,29.292279 c 0.270607,-0.0385 0.544247,-0.120283 0.691893,-0.206791 0.334773,-0.196173 0.785669,-1.293872 0.962494,-2.343107 0.107158,-0.635963 0.147058,-1.540486 0.09543,-2.163972 -0.021,-0.254448 -0.03383,-0.279823 -0.143091,-0.280465 -0.126291,-7.47e-4 -0.516655,-0.117832 -0.73048,-0.219157 -0.286299,-0.135624 -0.374206,-0.196815 -1.083413,-0.753965 -0.324856,-0.255207 -0.597288,-0.464039 -0.605438,-0.464039 -0.0082,0 -0.273465,0.202824 -0.589548,0.450739 -0.716941,0.562271 -0.825166,0.637853 -1.099541,0.767825 -0.293065,0.138833 -0.607025,0.21764 -0.934792,0.234674 l -0.26069,0.01342 v 0.454647 c 0,2.204858 0.487022,3.845526 1.251371,4.215666 0.240565,0.116491 0.793153,0.244007 1.355652,0.31284 0.189116,0.02333 0.879749,0.01167 1.090156,-0.01867 z"
       id="path17" /></g></svg>
